<svg preserveAspectRatio="none" overflow="visible" style="display: block;" width="14.9923" height="14.9923" viewBox="0 0 14.9923 14.9923" fill="none" xmlns="http://www.w3.org/2000/svg">
<g id="Icon" clip-path="url(#clip0_0_4)">
<path id="Vector" d="M13.7429 7.49615H9.99487L8.74551 9.37019H6.24679L4.99743 7.49615H1.24936" stroke="#4F39F6" stroke-width="1.24936" stroke-linecap="round" stroke-linejoin="round"/>
<path id="Vector_2" d="M3.4045 3.19211L1.24936 7.49615V11.2442C1.24936 11.5756 1.38099 11.8934 1.61529 12.1277C1.84959 12.362 2.16737 12.4936 2.49872 12.4936H12.4936C12.8249 12.4936 13.1427 12.362 13.377 12.1277C13.6113 11.8934 13.7429 11.5756 13.7429 11.2442V7.49615L11.5878 3.19211C11.4844 2.98396 11.3249 2.80879 11.1274 2.6863C10.9298 2.5638 10.7021 2.49884 10.4696 2.49872H4.52268C4.29024 2.49884 4.06245 2.5638 3.86492 2.6863C3.66738 2.80879 3.50793 2.98396 3.4045 3.19211Z" stroke="#4F39F6" stroke-width="1.24936" stroke-linecap="round" stroke-linejoin="round"/>
</g>
<defs>
<clipPath id="clip0_0_4">
<rect width="14.9923" height="14.9923" fill="white"/>
</clipPath>
</defs>
</svg>
