<svg preserveAspectRatio="none" overflow="visible" style="display: block;" width="14.9923" height="14.9923" viewBox="0 0 14.9923 14.9923" fill="none" xmlns="http://www.w3.org/2000/svg">
<g id="Icon" clip-path="url(#clip0_0_19)">
<path id="Vector" d="M1.61542 10.8782C1.3811 11.1124 1.24943 11.4301 1.24936 11.7615V13.1183C1.24936 13.2839 1.31517 13.4428 1.43232 13.56C1.54947 13.6771 1.70836 13.7429 1.87404 13.7429H3.74808C3.91375 13.7429 4.07264 13.6771 4.18979 13.56C4.30694 13.4428 4.37275 13.2839 4.37275 13.1183V12.4936C4.37275 12.3279 4.43857 12.169 4.55572 12.0519C4.67287 11.9347 4.83176 11.8689 4.99743 11.8689H5.62211C5.78779 11.8689 5.94668 11.8031 6.06383 11.6859C6.18098 11.5688 6.24679 11.4099 6.24679 11.2442V10.6195C6.24679 10.4539 6.31261 10.295 6.42976 10.1778C6.54691 10.0607 6.7058 9.99487 6.87147 9.99487H6.97892C7.31024 9.9948 7.62797 9.86312 7.86221 9.6288L8.3707 9.12032C9.2389 9.42275 10.184 9.42159 11.0515 9.11704C11.919 8.81248 12.6574 8.22255 13.146 7.44376C13.6346 6.66496 13.8444 5.74341 13.7411 4.82986C13.6379 3.9163 13.2277 3.06483 12.5776 2.41474C11.9275 1.76465 11.076 1.35442 10.1624 1.25116C9.24889 1.14791 8.32734 1.35774 7.54854 1.84633C6.76975 2.33492 6.17982 3.07334 5.87526 3.9408C5.5707 4.80826 5.56955 5.7534 5.87198 6.6216L1.61542 10.8782Z" stroke="white" stroke-width="1.24936" stroke-linecap="round" stroke-linejoin="round"/>
<path id="Vector_2" d="M10.3072 4.99743C10.4797 4.99743 10.6195 4.85759 10.6195 4.68509C10.6195 4.51259 10.4797 4.37275 10.3072 4.37275C10.1347 4.37275 9.99487 4.51259 9.99487 4.68509C9.99487 4.85759 10.1347 4.99743 10.3072 4.99743Z" fill="white" stroke="white" stroke-width="1.24936" stroke-linecap="round" stroke-linejoin="round"/>
</g>
<defs>
<clipPath id="clip0_0_19">
<rect width="14.9923" height="14.9923" fill="white"/>
</clipPath>
</defs>
</svg>
